# xmcd
#
# Track frame offsets:
#	150
#	13516
#	24726
#	45053
#	56362
#	66908
#	79980
#	106613
#	120059
#	134473
#	157121
#	175575
#	199536
#	213942
#	232006
#
# Disc length: 3269
#
# Revision: 1
# Processed by: cddbd v1.5.1PL0 Copyright (c) Steve Scherf et al.
# Submitted via: WhereIsIt 3.23
# Normalized: r0:DSETVAR1
#
DISCID=b50cc30f
DTITLE=Various Artist - Blues Story - Vol. 14 - Le Texas Blues
DYEAR=1900
DGENRE=
TTITLE0=Johnny Winter - Ain't Like Just Like A Women
TTITLE1=Freddie King - Hideaway
TTITLE2=Clarence "Gatemouth" Brown - The Peeper
TTITLE3=Omar and The Howlers - Shake For Me
TTITLE4=Larry Garner - Last Encore
TTITLE5=LeadBelly - Good Morning Blues
TTITLE6=Storyville - Bitter Rain
TTITLE7=Lightnin' Hopkins - Katie May
TTITLE8=T-Bone Walker - Louisiana Bayou Drive
TTITLE9=Neal Black - Misery
TTITLE10=Jimmy Spacek - Sweet Texas Soul
TTITLE11=Marc Benno - Take It Back To Texas
TTITLE12=Rory Block - Come On Im My Kitchen
TTITLE13=Long John Hunter - Road Hog
TTITLE14=Del Dragons - I Must Be Dreamin'
EXTD=
EXTT0=
EXTT1=
EXTT2=
EXTT3=
EXTT4=
EXTT5=
EXTT6=
EXTT7=
EXTT8=
EXTT9=
EXTT10=
EXTT11=
EXTT12=
EXTT13=
EXTT14=
PLAYORDER=
